<svg viewBox="0 0 459.73863 448.60946" class="svg"><path class="path" d="M229.849 5C105.677 5 5 105.677 5 229.876c0 99.352 64.426 183.628 153.783 213.377 11.25 2.057 15.35-4.887 15.35-10.85 0-5.329-.193-19.478-.303-38.239-62.548 13.584-75.746-30.149-75.746-30.149-10.229-25.966-24.972-32.882-24.972-32.882-20.417-13.957 1.546-13.68 1.546-13.68 22.57 1.6 34.442 23.177 34.442 23.177 20.058 34.36 52.637 24.434 65.448 18.692 2.043-14.537 7.84-24.448 14.274-30.067-49.931-5.673-102.43-24.972-102.43-111.14 0-24.545 8.766-44.616 23.15-60.34-2.319-5.687-10.036-28.548 2.195-59.511 0 0 18.885-6.047 61.844 23.053 17.933-4.983 37.176-7.482 56.295-7.565 19.092.083 38.336 2.582 56.295 7.565 42.933-29.1 61.776-23.053 61.776-23.053 12.272 30.963 4.555 53.824 2.236 59.511 14.412 15.724 23.123 35.795 23.123 60.34 0 86.389-52.582 105.398-102.679 110.96 8.076 6.945 15.268 20.666 15.268 41.65 0 30.052-.276 54.306-.276 61.678 0 6.019 4.045 13.018 15.461 10.823 89.288-29.804 153.659-114.026 153.659-213.35C454.739 105.676 354.049 5 229.849 5"/></svg>