<?xml version="1.0" encoding="UTF-8" standalone="no"?>
<!-- Created with Inkscape (http://www.inkscape.org/) -->

<svg
   xmlns:dc="http://purl.org/dc/elements/1.1/"
   xmlns:cc="http://creativecommons.org/ns#"
   xmlns:rdf="http://www.w3.org/1999/02/22-rdf-syntax-ns#"
   xmlns:svg="http://www.w3.org/2000/svg"
   xmlns="http://www.w3.org/2000/svg"
   xmlns:sodipodi="http://sodipodi.sourceforge.net/DTD/sodipodi-0.dtd"
   xmlns:inkscape="http://www.inkscape.org/namespaces/inkscape"
   width="396.875mm"
   height="132.29167mm"
   viewBox="0 0 396.875 132.29167"
   version="1.1"
   id="svg8"
   inkscape:version="0.92.0 r15299"
   sodipodi:docname="line.svg">
  <defs
     id="defs2" />
  <sodipodi:namedview
     id="base"
     pagecolor="#ffffff"
     bordercolor="#666666"
     borderopacity="1.0"
     inkscape:pageopacity="0.0"
     inkscape:pageshadow="2"
     inkscape:zoom="0.49497475"
     inkscape:cx="648.00115"
     inkscape:cy="668.45955"
     inkscape:document-units="mm"
     inkscape:current-layer="layer1"
     showgrid="false"
     fit-margin-top="0"
     fit-margin-left="0"
     fit-margin-right="0"
     fit-margin-bottom="0"
     inkscape:window-width="960"
     inkscape:window-height="1028"
     inkscape:window-x="1366"
     inkscape:window-y="24"
     inkscape:window-maximized="0"
     showguides="true"
     inkscape:guide-bbox="true" />
  <metadata
     id="metadata5">
    <rdf:RDF>
      <cc:Work
         rdf:about="">
        <dc:format>image/svg+xml</dc:format>
        <dc:type
           rdf:resource="http://purl.org/dc/dcmitype/StillImage" />
        <dc:title />
      </cc:Work>
    </rdf:RDF>
  </metadata>
  <g
     inkscape:label="レイヤー 1"
     inkscape:groupmode="layer"
     id="layer1"
     transform="translate(185.64537,18.184996)">
    <path
       id="path4801-4"
       style="color:#000000;clip-rule:nonzero;display:inline;overflow:visible;visibility:visible;opacity:1;isolation:auto;mix-blend-mode:normal;color-interpolation:sRGB;color-interpolation-filters:linearRGB;solid-color:#000000;solid-opacity:1;vector-effect:none;fill:none;fill-opacity:1;fill-rule:nonzero;stroke:#000000;stroke-width:0.26458332;stroke-linecap:butt;stroke-linejoin:miter;stroke-miterlimit:100;stroke-dasharray:none;stroke-dashoffset:0;stroke-opacity:1;marker:none;color-rendering:auto;image-rendering:auto;shape-rendering:auto;text-rendering:auto;enable-background:accumulate"
       d="M 5.6102663,-18.185001 104.81883,114.10668 M -125.25306,-18.184997 V 114.10668 m 4.84785,-132.291677 V 114.10668 m 4.84718,-132.291677 V 114.10668 m 4.8395,-132.291677 V 114.10668 m 4.84718,-132.291677 V 114.10668 m 4.83909,0 V -18.184997 m 4.847572,132.291677 V -18.184997 m 62.96723,132.291677 V -18.184997 M 44.258892,114.10668 V -18.184997 M 97.556532,114.10668 V -18.184997 M 102.40414,114.10668 V -18.184997 M 78.183152,114.10668 V -18.184997 M 0.68161238,114.10668 V -18.184997 M -18.691688,114.10668 V -18.184997 M -57.454628,114.10668 V -18.184997 m 19.37334,132.291677 V -18.184997 M -76.811318,114.10668 V -18.184997 M -185.64537,18.921708 H 211.22964 M -185.64537,77.033229 H 211.22964 M 150.83708,114.10668 V -18.184997 m -336.48245,68.569596 h 396.87501 m -396.87501,0.75661 H 211.22964 M -128.84434,-18.184997 -29.635747,114.10668 M -104.66171,-18.184997 -5.4531465,114.10668 M -4.1248637,-18.184997 95.083694,114.10668 M -98.612658,-18.184997 0.5959025,114.10668 M -71.969902,-18.184997 27.238641,114.10668 M -65.918977,-18.184997 33.289617,114.10668 M -51.381621,-18.184997 47.925832,114.10668 M -27.171664,-18.184997 72.036894,114.10668 M -21.154225,-18.184997 78.054372,114.10668 M -10.186793,-18.184997 89.021769,114.10668 M 8.9572969,-18.184997 108.16586,114.10668 M -16.24912,-18.184997 82.959448,114.10668 M 63.733051,-18.184997 162.94162,114.10668 M 81.930556,-18.184997 181.13912,114.10668 M 87.987204,-18.184997 187.19577,114.10668 M 94.045647,-18.184997 193.2542,114.10668 M 100.11373,-18.184997 199.32226,114.10668 M 106.17483,-18.184997 205.3834,114.10668 M 112.22599,-18.184997 211.22964,113.8334 M 118.29486,-18.184997 211.82341,106.5326 M 20.038372,114.10668 V -18.184997 M 39.411692,114.10668 V -18.184997 m 9.71146,132.291677 V -18.184997 M -185.64537,65.667019 h 396.87501 m -396.87501,-5.59578 h 396.87501" />
  </g>
</svg>
