<?xml version="1.0" encoding="UTF-8" standalone="no"?>
<!-- Created with Inkscape (http://www.inkscape.org/) -->

<svg
   xmlns:dc="http://purl.org/dc/elements/1.1/"
   xmlns:cc="http://creativecommons.org/ns#"
   xmlns:rdf="http://www.w3.org/1999/02/22-rdf-syntax-ns#"
   xmlns:svg="http://www.w3.org/2000/svg"
   xmlns="http://www.w3.org/2000/svg"
   xmlns:sodipodi="http://sodipodi.sourceforge.net/DTD/sodipodi-0.dtd"
   xmlns:inkscape="http://www.inkscape.org/namespaces/inkscape"
   width="200"
   height="41.391987"
   viewBox="0 0 52.916666 10.95163"
   version="1.1"
   id="svg8"
   inkscape:version="0.92.0 unknown"
   sodipodi:docname="ninjalogo.svg">
  <defs
     id="defs2" />
  <sodipodi:namedview
     id="base"
     pagecolor="#ffffff"
     bordercolor="#666666"
     borderopacity="1.0"
     inkscape:pageopacity="0.0"
     inkscape:pageshadow="2"
     inkscape:zoom="1.4"
     inkscape:cx="45.763104"
     inkscape:cy="15.314941"
     inkscape:document-units="mm"
     inkscape:current-layer="layer1"
     showgrid="false"
     fit-margin-top="0"
     fit-margin-left="0"
     fit-margin-right="0"
     fit-margin-bottom="0"
     inkscape:window-width="1366"
     inkscape:window-height="744"
     inkscape:window-x="0"
     inkscape:window-y="24"
     inkscape:window-maximized="1"
     units="px" />
  <metadata
     id="metadata5">
    <rdf:RDF>
      <cc:Work
         rdf:about="">
        <dc:format>image/svg+xml</dc:format>
        <dc:type
           rdf:resource="http://purl.org/dc/dcmitype/StillImage" />
        <dc:title></dc:title>
      </cc:Work>
    </rdf:RDF>
  </metadata>
  <g
     inkscape:label="レイヤー 1"
     inkscape:groupmode="layer"
     id="layer1"
     transform="translate(-7.9009926,-149.39063)">
    <path
       style="line-height:normal;text-indent:0;text-align:start;text-decoration:none;text-decoration-line:none;text-decoration-style:solid;text-decoration-color:#000000;text-transform:none;opacity:1;isolation:auto;mix-blend-mode:normal;fill:#000000;stroke-width:0.91236877"
       d="m 46.219258,149.39063 v 7.75574 h -1.981216 l -1.370425,-1.82617 h -2.12217 v 0.45889 l 3.423674,4.55916 h 5.699352 v -10.94762 z m 5.475372,0 v 2.73456 l 2.505893,3.34066 H 51.69463 v 2.73456 h 4.560729 l 1.60691,2.13628 h 2.95539 v -0.62961 l -7.747915,-10.31645 z m 2.51687,0 6.606159,8.79725 v -1.52076 l -5.462849,-7.27649 z m 2.285066,0 4.321093,5.75259 v -1.52076 l -3.179355,-4.23183 z m 2.285053,0 2.03604,2.71263 v -1.5239 l -0.894294,-1.18873 z m -50.8806264,0.002 v 10.9492 h 0.9115196 v -10.94919 z m 1.8246091,0 v 10.9492 h 0.9115193 v -10.94919 z m 1.8245993,0 v 10.9492 h 0.91152 v -10.94919 z m 1.82461,0 v 10.94915 h 3.649212 v -4.86771 l 3.649209,4.86771 h 3.649203 v -1.21223 l -7.298412,-9.73695 z m 11.860713,0 v 0.9131 l 2.73612,3.64451 v -3.33754 l -0.916218,-1.22006 z m 6.386892,0 -0.0046,0.002 h 0.0064 z m 0.0019,0.002 8.205225,10.94763 V 149.39465 H 38.00806 l 0.909963,1.21222 v 7.00555 l -3.650756,-4.86925 v -3.3485 z m -10.953888,0 v 3.34852 l 3.649216,4.86927 v -7.00555 l -0.90841,-1.21222 z m 4.565415,2.4323 v 8.51221 h 2.736122 v -4.8677 z m 6.386893,3.64608 v 4.86613 H 35.2719 Z m 9.123031,1.82773 v 1.52077 l 1.14018,1.51763 h 1.141746 z"
       id="path9403-1-3"
       inkscape:connector-curvature="0" />
  </g>
</svg>
