<svg xmlns="http://www.w3.org/2000/svg" width="80mm" height="80mm" viewBox="0 0 283.46457 283.46457"><path style="line-height:normal;text-indent:0;text-align:start;text-decoration-line:none;text-decoration-style:solid;text-decoration-color:#000;text-transform:none;block-progression:tb;isolation:auto;mix-blend-mode:normal;marker:none" d="M141.733 50.611c-5.982 0-11.278 2.765-16.62 6.647-5.344 3.881-10.772 9.143-16.31 15.42-11.075 12.553-22.525 29.192-32.609 46.658-10.084 17.466-18.768 35.702-24.101 51.57-2.667 7.934-4.512 15.266-5.202 21.834-.69 6.568-.438 12.538 2.553 17.719 2.991 5.18 8.036 8.382 14.069 11.068 6.033 2.687 13.303 4.757 21.507 6.414 16.41 3.315 36.545 4.912 56.713 4.912s40.302-1.597 56.711-4.912c8.205-1.657 15.477-3.727 21.51-6.414 6.033-2.686 11.075-5.888 14.066-11.068 2.991-5.18 3.243-11.151 2.553-17.719-.69-6.568-2.532-13.9-5.2-21.834-5.333-15.868-14.017-34.104-24.1-51.57-10.085-17.466-21.536-34.105-32.612-46.658-5.538-6.277-10.966-11.539-16.309-15.42-5.343-3.882-10.637-6.647-16.619-6.647zm0 13.053c1.382 0 4.778 1.127 8.948 4.156 4.17 3.03 9.077 7.696 14.193 13.494 10.231 11.597 21.36 27.69 31.094 44.55 9.734 16.859 18.106 34.544 23.033 49.202 2.463 7.33 4.051 13.913 4.59 19.04.538 5.125-.184 8.628-.875 9.826-.691 1.197-3.364 3.573-8.073 5.67-4.708 2.096-11.204 4.013-18.783 5.544-2.214.448-4.544.854-6.93 1.239l-7.544-70.541H102.08l-7.547 70.54a178.862 178.862 0 0 1-6.928-1.238c-7.579-1.53-14.076-3.448-18.785-5.545-4.708-2.096-7.381-4.472-8.072-5.67-.691-1.197-1.414-4.7-.875-9.826.538-5.126 2.128-11.71 4.592-19.039 4.927-14.658 13.299-32.343 23.033-49.203 9.734-16.86 20.862-32.952 31.094-44.549 5.115-5.798 10.023-10.464 14.193-13.494 4.17-3.03 7.565-4.156 8.947-4.156z" color="#000" font-weight="400" font-family="sans-serif" white-space="normal" overflow="visible" fill="#fff"/></svg>