<svg viewBox="0 0 451.32133 451.3213" class="svg"><path class="path" d="M105.573 5C49.856 5 5 49.856 5 105.573v17.246c41.562-34.924 122.638-89.065 226.317-89.065 58.684 0 109.178 18.168 145.234 49.658 36.092 31.373 57.056 76.283 56.949 125.223.145 49.844-23.71 93.453-60.72 122.658-37.013 29.373-86.77 45.63-141.463 45.63-62.242 0-119.987-22.652-119.987-22.652v73.07c10.03 2.935 26.098 9.025 18.748 18.98h215.67c55.718 0 100.573-44.855 100.573-100.573V105.573C446.321 49.856 401.466 5 345.748 5H105.573zm120.603 54.856c-38.257-.078-85.635 12.7-114.846 33.442v232.389c26.622 13.102 66.947 22.381 114.846 22.35 42.934.032 80.154-15.944 105.745-41.199 25.595-25.465 39.975-58.67 40.124-98.99-.12-41.372-13.569-76.974-38.207-103.77-24.676-26.643-61.182-44.185-107.662-44.222zM61.534 117.59c-28.339 21.755-42.854 40.61-50.268 54.604C18.353 194.8 8.643 197.778 5 198.144V345.75c0 35.85 18.588 67.178 46.673 84.98 3.19-1.352 6.65-2.483 9.86-3.388V117.59z"/></svg>