<?xml version="1.0" encoding="UTF-8" standalone="no"?>
<!-- Created with Inkscape (http://www.inkscape.org/) -->

<svg
   xmlns:dc="http://purl.org/dc/elements/1.1/"
   xmlns:cc="http://creativecommons.org/ns#"
   xmlns:rdf="http://www.w3.org/1999/02/22-rdf-syntax-ns#"
   xmlns:svg="http://www.w3.org/2000/svg"
   xmlns="http://www.w3.org/2000/svg"
   xmlns:sodipodi="http://sodipodi.sourceforge.net/DTD/sodipodi-0.dtd"
   xmlns:inkscape="http://www.inkscape.org/namespaces/inkscape"
   width="83.769325mm"
   height="83.76902mm"
   viewBox="0 0 83.769325 83.76902"
   version="1.1"
   id="svg8"
   inkscape:version="0.92.2 (unknown)"
   sodipodi:docname="QR.svg">
  <defs
     id="defs2" />
  <sodipodi:namedview
     id="base"
     pagecolor="#ffffff"
     bordercolor="#666666"
     borderopacity="1.0"
     inkscape:pageopacity="0.0"
     inkscape:pageshadow="2"
     inkscape:zoom="0.35"
     inkscape:cx="212.58995"
     inkscape:cy="95.446513"
     inkscape:document-units="mm"
     inkscape:current-layer="layer1"
     showgrid="false"
     fit-margin-top="0"
     fit-margin-left="0"
     fit-margin-right="0"
     fit-margin-bottom="0"
     inkscape:window-width="1366"
     inkscape:window-height="744"
     inkscape:window-x="0"
     inkscape:window-y="24"
     inkscape:window-maximized="1" />
  <metadata
     id="metadata5">
    <rdf:RDF>
      <cc:Work
         rdf:about="">
        <dc:format>image/svg+xml</dc:format>
        <dc:type
           rdf:resource="http://purl.org/dc/dcmitype/StillImage" />
        <dc:title></dc:title>
      </cc:Work>
    </rdf:RDF>
  </metadata>
  <g
     inkscape:label="レイヤー 1"
     inkscape:groupmode="layer"
     id="layer1"
     transform="translate(-49.585577,-90.317871)">
    <path
       inkscape:connector-curvature="0"
       style="opacity:1;fill:#000000;stroke:none;stroke-width:0.41884527"
       d="M 49.585577,90.317871 V 113.77318 H 73.041192 V 90.317871 Z m 30.156703,0 v 3.350845 h 3.350845 v 3.350243 h -6.70169 v 3.351141 h 3.350845 v 3.35055 h 3.350845 v 3.35084 h -3.350543 v 3.35055 h -3.350845 v 6.70169 H 62.988656 v 6.70139 h 3.350845 v -3.35055 h 6.701691 v 3.35055 h 3.350545 v 3.35054 h -3.350545 v -3.35054 h -3.350846 -3.350845 v 3.35054 h -3.350845 v -3.35054 h -3.350544 v -6.70139 H 49.585577 v 6.70139 h 6.701389 v 3.35084 h 3.351146 v 3.35025 h -3.351146 v 3.35084 h 6.70169 v -3.35054 h 3.350845 v 3.35054 h -3.350845 v 3.35084 h 6.70169 v -3.35084 h 3.350846 v 3.35084 h -3.350846 v 3.35055 h 3.350846 v 3.35085 h -3.350846 v -3.35055 h -6.70169 v -3.35085 H 52.936422 v 3.35085 h 6.70169 v 3.35055 h -6.70169 v -3.35055 h -3.350845 v 3.35085 h 3.350845 v 3.35054 h 6.70169 3.350544 v -3.35084 h 6.70169 v 3.35054 h 3.350846 3.350545 v -3.35054 -6.7014 h 3.350845 v -10.05253 h 3.350543 v -3.35055 h -3.350543 v -6.70138 h 3.350543 v 6.70138 h 6.701689 v -6.70138 h 3.350845 v 3.35084 h 3.350546 v -6.70169 h -3.350546 v -3.35054 h -3.350845 v 6.70139 h -3.350845 v -6.70169 h -3.350844 v -3.35085 h 3.350844 v -3.35054 h 3.350546 v -3.35085 h -3.350546 v -3.350842 h 3.350546 v 3.350842 h 3.350845 v -3.350842 h 3.350845 v -3.349942 h 3.350543 v 6.701384 h -3.350543 v 3.35055 h 3.350543 v 3.35084 H 93.14536 v 3.35085 h 3.350845 v 3.35084 h 3.350543 v -3.35084 h 3.350842 V 97.018959 h 3.35055 v -3.350544 h -3.35055 V 90.317871 H 89.794515 v 3.350544 H 83.092823 V 90.317871 Z M 52.936422,137.2282 v -6.70139 h -3.350845 v 6.70139 z M 109.89929,90.317871 V 113.77318 H 133.3549 V 90.317871 Z M 52.936121,93.668716 H 69.690046 V 110.42234 H 52.936121 Z m 60.314009,0 h 16.75362 V 110.42234 H 113.25013 Z M 56.286966,97.018959 V 107.07119 H 66.339501 V 97.018959 Z m 60.314004,0 v 10.052531 h 10.05224 V 97.018959 Z M 79.742582,110.42234 h 3.350543 v 3.35024 h -3.350543 z m 23.455308,0 v 6.70139 h -3.350841 v 3.35115 h 6.701691 v 3.35054 h 6.70139 v -6.70169 h -6.70139 v -6.70139 z m 20.10447,6.70139 v 3.35115 h 3.35085 v -3.35115 z m 6.70139,3.35115 v 3.35054 h -6.70139 v 3.35084 h 3.35085 v 6.70139 h 3.35054 v 3.35055 h -6.70139 v 3.35084 h 3.35085 v 3.35055 h 3.35054 v -3.35055 h 3.35115 v -10.05223 h -3.35115 v -3.35055 h 3.35115 v -6.70138 z m -6.70139,16.75332 v -6.70139 h -3.35054 v 6.70139 z M 96.496205,123.82542 v 3.35054 h -3.350546 v 3.35085 h -3.350845 v 3.35084 h -3.350845 v 6.70139 h 3.351147 v 3.35055 h -6.701991 v 3.35084 h 3.350844 v 3.35085 h 3.351147 v -3.35085 h 3.350543 v 6.70169 h -3.350543 v 3.35085 h -6.701991 v 3.35054 h 6.701991 v 3.35085 h 3.350543 v 6.70138 h -3.350845 v -3.35084 h -3.350845 v 6.70169 h 10.052236 v -10.05223 h -3.350546 v -3.35085 h 6.70139 v -3.35054 h -3.350543 v -3.35085 h 6.701384 v 6.70139 h 10.05254 v 3.35085 h 3.35024 v 6.70138 h 6.70139 v -3.35084 h -3.35054 v -3.35054 h 6.70139 v -3.35085 h -3.35085 v -16.75392 h -3.35054 v -3.35055 h -3.35085 v 3.35055 H 99.847049 v 6.70169 h -3.350844 v -6.70169 h 3.350543 v -3.35055 h -6.701089 v -3.35084 h 6.70139 v -3.35055 h -3.350844 v -6.70169 h 3.350844 v -3.35084 z m 20.104465,46.91063 h -3.35054 v 3.35084 h 3.35054 z m -3.35054,0 v -3.35085 h -3.35084 v 3.35085 z M 83.093125,157.33297 v -3.35055 h -3.350543 v -3.35114 h 3.350543 v -3.35055 h -6.701388 v 13.40308 h 3.350845 v -3.35084 z m 0,-13.40308 v -6.70169 h -3.350543 v 6.70169 z m 3.350844,-16.75393 v 3.35085 h 3.350845 v -3.35085 z m 13.40308,0 v 3.35085 h 3.350841 v -3.35085 z m 16.753921,0 v 3.35085 h 3.35085 v -3.35085 z m -46.910624,0 h 3.350846 v 3.35055 h -3.350846 z m 33.507544,3.35055 v 3.35054 3.35084 3.35085 h 3.35085 3.35055 v -3.35085 h 3.35084 v -3.35084 -3.35054 h -3.35084 v 3.35054 h -3.35055 v -3.35054 z m 10.05224,6.70138 v 3.35085 h 3.35054 v -3.35085 z m -6.70169,10.05224 h 10.05223 v 10.05253 h -10.05223 z m 20.10477,0 v 6.70199 h 6.70169 v -6.70199 z m -77.067332,3.35084 v 23.45532 h 23.455615 v -23.45532 z m 60.313412,0 v 3.35115 h 3.35084 v -3.35115 z m -56.962868,3.35085 h 16.753924 v 16.75362 H 52.936422 Z m 3.350845,3.35055 v 10.05193 h 10.052535 v -10.05193 z m 20.10447,6.70168 v 10.05254 h 3.350845 v -10.05254 z m 23.455312,0 v 6.70139 h 3.350841 v 3.35115 h 3.35085 v -6.70169 h -3.35085 v -3.35085 z m 30.156701,0 v 3.35085 h 3.35115 v -3.35085 z m 0,3.35085 h -3.35054 v 6.70169 h 6.70169 v -3.35115 h -3.35115 z"
       id="path13818-0" />
  </g>
</svg>
