<svg xmlns="http://www.w3.org/2000/svg" width="80mm" height="80mm" viewBox="0 0 283.46457 283.46457"><path style="isolation:auto;mix-blend-mode:normal;marker:none" d="M141.731 6.186L95.768 58.32l-21.81-33.972L60.22 92.475 24.345 73.96l22.168 65.87-40.327 1.903 52.131 45.963-33.972 21.81 68.128 13.739-18.515 35.875 65.871-22.168 1.902 40.326 45.963-52.13 21.81 33.972 13.739-68.129 35.875 18.516-22.166-65.871 40.326-1.903-52.133-45.963 33.973-21.81-68.129-13.738 18.516-35.875-65.871 22.166-1.903-40.327zm0 102.786a32.762 32.762 0 0 0 32.764 32.761 32.762 32.762 0 0 0-32.764 32.762 32.762 32.762 0 0 0-32.761-32.762 32.762 32.762 0 0 0 32.761-32.761z" color="#000" overflow="visible" fill="#00aad4"/></svg>