<svg viewBox="0 0 579.41094 458.17632" class="svg"><path class="path" d="M570.043 58.092c-20.304 9.007-42.129 15.092-65.03 17.83 23.376-14.014 41.332-36.202 49.784-62.644a226.653 226.653 0 0 1-71.903 27.476C462.242 18.748 432.815 5 400.248 5c-62.53 0-113.23 50.694-113.23 113.224 0 8.874 1.002 17.517 2.934 25.803-94.103-4.721-177.533-49.8-233.38-118.303-9.746 16.722-15.33 36.17-15.33 56.922 0 39.284 19.989 73.94 50.37 94.244a112.776 112.776 0 0 1-51.284-14.162v1.424c0 54.859 39.03 100.618 90.828 111.027-18.048 5.6-30.857 5.864-51.133 1.94 14.41 44.982 56.224 77.718 105.773 78.628-57.87 35.587-108.007 53.794-167.632 46.89 92.478 67.92 251.266 64.25 346.433 5.868C470.51 343.53 524.77 198.418 513.56 116.7c22.12-15.96 41.314-35.9 56.494-58.608z"/></svg>