<svg xmlns="http://www.w3.org/2000/svg" width="866.412" height="1119.406" viewBox="0 0 812.26168 1049.443"><g color="#000"><path style="marker:none" d="M406.133 0c-22.061.384-43.22 2.612-64.242 5.441-66.721 9.773-129.388 37.912-179.446 78.522C67.9 162.034 12.329 277.526 15.529 393.078c-2.642 40.598 2.525 91.043-.808 136.047-20.334 49.739-17.347 61.276-4.66 93.82 13.08 60.66 30.708 106.307 45.343 166.854 31.354 10.73 93.92 32.365 93.92 32.365l32.87 163.424 223.939 63.855 223.934-63.855 32.87-163.424s62.567-21.635 93.92-32.365c14.636-60.547 32.263-106.194 45.344-166.854 12.687-32.544 15.674-44.081-4.66-93.82-3.333-45.004 1.834-95.449-.808-136.047 3.2-115.552-52.371-231.044-146.916-309.115-50.058-40.61-112.725-68.749-179.446-78.522C449.349 2.612 428.194.384 406.133 0zm0 60.138c240.914.504 324.099 224.721 324.099 302.944 0 15.806.239 58.074.502 99.215l-52.502-.719c-53.68-.735-83.133 48.13-174.468 74.67 102.263-4.842 108.52-49.833 168.347-39.789 90.87 107.412 48.939 200.119-33.31 255.734v-48.93l-9.3-9.296c33.323-32.384 54.676-77.501 43.71-118.249-5.707-21.206-20.247-28.51-39.512-28.304-49.232.528-129.33 50.119-171.777 42.166l11.246 84.896 57.852 63.946 24.339 24.339v54.022l26.602-15.359v-59.641l-10.377-10.377a141.21 141.21 0 0 0 11.533-4.842l16.936 16.936v50.996l-17.037 81.57-40.842 11.563v-58.996l-30.373 8.058v102.627l-30.373 8.66-.08-103.152-30.47 8.139v60.582l-30.374 8.638v-61.08l-14.373 3.887-14.373-3.887v120.981l-30.375-8.662-.1-179.62-30.373-8.058v162.205l-30.373-8.662-.08-127.403-30.373-8.058v83.801l-40.842-11.563-11.14-53.34 16.394 16.395v-91.518l20.537-11.857c8.845 2.079 17.649 3.041 26.197 2.676l57.856-63.946 11.242-84.896c-42.448 7.953-122.545-41.638-171.777-42.166-19.265-.206-33.801 7.098-39.508 28.304-7.508 27.896.138 57.84 16.393 84.346l-12.731 12.731v55.035c-60.374-56.423-81.221-138.39-2.56-231.371 59.828-10.044 66.086 34.947 168.349 39.789-91.335-26.54-120.79-75.405-174.47-74.67l-52.501.719c.263-41.141.502-83.409.502-99.215 0-78.223 83.187-302.44 324.102-302.944zm0 600.344l-52.32 75.373 16.238 34.063 36.082-27.701 36.08 27.701 16.236-34.063zm-233.328 23.041c11.815 13.441 25.729 25.241 40.568 34.434l-19.883 11.478v35.145c-9.326-5.263-18.28-10.963-26.754-17.072v-57.916z" overflow="visible"/><path style="line-height:normal;text-indent:0;text-align:start;text-decoration-line:none;text-decoration-style:solid;text-decoration-color:#000;text-transform:none;block-progression:tb;isolation:auto;mix-blend-mode:normal" d="M-2943.036-1445.97v1272.763h105.31V-1445.97h-105.31zm210.62 0v1263.717h105.31V-1445.97h-105.31zm210.62 0v1263.717h105.31V-1445.97h-105.31zm526.548 0l947.377 1263.717V-1445.77h-210.208l104.899 139.862v808.547l-421.24-561.933v-386.476h-421.239zm1158.408 0v693.76l315.93 315.929v-1009.69h-315.93zm526.549 0v1263.717h421.239v-561.722l421.239 561.722h421.239v-139.872L110.948-1445.97h-421.24zm842.478 0v386.476L953.426-497.57v-808.537l-104.9-139.862h-316.34zm1263.717 0v895.133h-176.267l-210.62-210.62h-244.972v52.855l526.35 526.35h526.748V-1445.97h-421.239zm631.859 0v315.719l289.402 385.454h-289.402v315.72h526.548l185.325 246.614h341.224v-67.873L2583.053-1445.97h-155.29zm287.137 0l765.96 1019.978V-601.65l-634.122-844.321H2714.9zm263.685 0l502.275 668.875v-175.646l-370.437-493.23h-131.838zm263.475 0l238.8 317.983v-175.657l-106.952-142.326H3242.06zm-5237.308 701.784v561.723h421.24l-421.24-561.723zM-836.84-603.703v272.532l148.708 148.708h167.221v-105.31l-315.93-315.93zm2000.885 43.81v148.707l228.723 228.723h148.708l-377.43-377.43z" font-weight="400" font-family="sans-serif" white-space="normal" overflow="visible"/></g></svg>