<svg xmlns="http://www.w3.org/2000/svg" viewBox="0 0 61.004003 12" width="61.004" height="12"><path d="M.004 0L0 12h1l.004-12zm2 0v12h1V0zm2 0v12h1V0zm5 0L18 12 18.004.002h-1.996l.996 1.328v7.678l-4-5.336V.002zm11 0v6.588l3 3V0zm5 0v12h4V6.666l4 5.334h4v-1.328L29.004 0zm8 0v3.67l4 5.336V1.328L36.008 0zm12 0v8.5H43.33l-2-2h-2.326v.502L44.002 12h5.002V0zm6 0v2.998l2.748 3.66h-2.748v2.998h5l1.76 2.342h3.24v-.644L52.479 0zm2.726 0l7.274 9.685V8.018L54.983 0zm2.504 0l4.77 6.351V4.684L57.486 0zm2.502 0l2.268 3.02V1.35L59.988 0zM9.004 6.664v5.334h4zm11 1.334v2.588l1.412 1.412h1.588v-1zm19 .416v1.412l2.172 2.172h1.412z"/></svg>