<svg xmlns="http://www.w3.org/2000/svg" viewBox="0 0 61.003999 12" height="12.8" width="65.071"><path style="line-height:normal;text-indent:0;text-align:start;text-decoration-line:none;text-decoration-style:solid;text-decoration-color:#000;text-transform:none;block-progression:tb;isolation:auto;mix-blend-mode:normal" d="M.004 0L0 12h1l.004-12zM2.004 0v12h1V0zM4.004 0v12h1V0zM9.004 0L18 12 18.004.002h-1.996l.996 1.328v7.678l-4-5.336V.002zM20.004 0v6.588l3 3V0zM25.004 0v12h4V6.666l4 5.334h4v-1.328L29.004 0zM33.004 0v3.67l4 5.336V1.328L36.008 0zM45.004 0v8.5H43.33l-2-2h-2.326v.502L44.002 12h5.002V0zM51.004 0v2.998l2.748 3.66h-2.748v2.998h5l1.76 2.342h3.24v-.644L52.479 0zM53.731 0l7.273 9.685V8.018L54.983 0zM56.234 0l4.77 6.351V4.684L57.486 0zM58.736 0l2.268 3.02V1.35L59.988 0zM9.004 6.664v5.334h4zM20.004 7.998v2.588l1.412 1.412h1.588v-1zM39.004 8.414v1.412l2.172 2.172h1.412z" color="#000" font-weight="400" font-family="sans-serif" white-space="normal" overflow="visible"/></svg>