<svg xmlns="http://www.w3.org/2000/svg" width="200" height="41.392" viewBox="0 0 52.916666 10.95163"><path style="line-height:normal;text-indent:0;text-align:start;text-decoration-line:none;text-decoration-style:solid;text-decoration-color:#000;text-transform:none;isolation:auto;mix-blend-mode:normal" d="M38.318 0v7.756h-1.981l-1.37-1.826h-2.123v.458l3.424 4.56h5.7V0zm5.476 0v2.735l2.506 3.34h-2.506V8.81h4.56l1.607 2.136h2.956v-.63L45.169 0zm2.517 0l6.606 8.797v-1.52L47.454 0zm2.285 0l4.32 5.753V4.232L49.738 0zm2.285 0l2.036 2.713V1.189L52.022 0zM0 .002v10.95h.912V.001zm1.825 0v10.95h.911V.001zm1.824 0v10.95h.912V.001zm1.825 0v10.95h3.649V6.082l3.65 4.868h3.648V9.74L9.123.002zm11.86 0v.913l2.737 3.645V1.222l-.917-1.22zm6.387 0l-.004.002h.006zm.002.002l8.206 10.948V.004h-1.822l.91 1.212v7.006l-3.65-4.87V.005zm-10.954 0v3.349l3.65 4.869V1.216L15.51.004zm4.566 2.432v8.513h2.736V6.08zm6.387 3.646v4.867h3.649zm9.123 1.828v1.52l1.14 1.519h1.142z"/></svg>