<svg xmlns="http://www.w3.org/2000/svg" width="316.608" height="316.607" viewBox="0 0 83.769325 83.76902"><path d="M0 0v23.455h23.456V0zm30.157 0v3.35h3.35v3.351h-6.701v3.351h3.35v3.35h3.352v3.352h-3.351v3.35h-3.35v6.702H13.402v6.701h3.35v-3.35h6.703v3.35h3.35v3.35h-3.35v-3.35h-6.702v3.35h-3.35v-3.35h-3.351v-6.701H0v6.701h6.701v3.351h3.352v3.35H6.7v3.351h6.702v-3.35h3.35v3.35h-3.35v3.351h6.702v-3.35h3.35v3.35h-3.35v3.35h3.35v3.351h-3.35v-3.35h-6.702V46.91H3.351v3.35h6.702v3.351H3.35v-3.35H0v3.35h3.35v3.351h10.053v-3.35h6.702v3.35H26.806V46.91h3.351V36.857h3.35v-3.35h-3.35v-6.701h3.35v6.7h6.702v-6.7h3.351v3.35h3.35v-6.701h-3.35v-3.35h-3.35v6.7h-3.352v-6.701h-3.35v-3.351h3.35v-3.35h3.35v-3.351h-3.35V6.7h3.35v3.35h3.352v-3.35h3.35V3.35h3.351v6.701h-3.35v3.35h3.35v3.352H43.56v3.35h3.35v3.351h3.351v-3.35h3.351V6.7h3.35v-3.35h-3.35V0H40.209v3.35h-6.702V0zM3.35 46.91V40.21H0v6.701zM60.314 0v23.455h23.455V0zM3.35 3.35h16.753v16.754H3.351zm60.314 0h16.753v16.754H63.665zM6.7 6.702v10.052h10.053V6.701zm60.314 0v10.053h10.053V6.7zM30.157 20.104h3.35v3.35h-3.35zm23.455 0v6.702h-3.35v3.351h6.701v3.35h6.702v-6.701h-6.702v-6.702zm20.105 6.702v3.351h3.35v-3.351zm6.701 3.351v3.35h-6.701v3.351h3.35v6.702h3.351v3.35h-6.701v3.351h3.35v3.35h3.351v-3.35h3.351V40.21h-3.35v-3.35h3.35v-6.702zM73.717 46.91V40.21h-3.35v6.701zM46.91 33.508v3.35h-3.35v3.35h-3.352v3.352h-3.35v6.701h3.35v3.35h-6.701v3.352h3.35v3.35h3.352v-3.35h3.35v6.701h-3.35v3.351h-6.702v3.35h6.702v3.351h3.35v6.702h-3.35v-3.351h-3.352v6.702h10.053V73.716h-3.35v-3.35h6.7v-3.35h-3.35v-3.352h6.701v6.702h10.053v3.35h3.35v6.702h6.701v-3.351h-3.35v-3.35h6.701v-3.351h-3.35V53.612h-3.351v-3.35h-3.35v3.35H50.26v6.701h-3.35v-6.701h3.35v-3.35h-6.7V46.91h6.7v-3.35h-3.35v-6.702h3.35v-3.35zm20.104 46.91h-3.35v3.351h3.35zm-3.35 0v-3.35h-3.351v3.35zM33.508 67.015v-3.35h-3.351v-3.352h3.35v-3.35h-6.7v13.403h3.35v-3.35zm0-13.403V46.91h-3.351v6.702zm3.35-16.754v3.35h3.351v-3.35zm13.403 0v3.35h3.351v-3.35zm16.754 0v3.35h3.351v-3.35zm-46.91 0h3.35v3.35h-3.35zm33.507 3.35V50.26H60.313v-3.35h3.352V40.209h-3.351v3.35h-3.35v-3.35zm10.053 6.702v3.35h3.35v-3.35zm-6.702 10.052h10.052v10.053H56.963zm20.105 0v6.702h6.701v-6.702zM0 60.313v23.455h23.456V60.313zm60.314 0v3.351h3.35v-3.35zM3.35 63.663h16.754v16.755H3.35zm3.35 3.351v10.052h10.053V67.014zm20.105 6.702V83.77h3.351V73.716zm23.455 0v6.702h3.351v3.35h3.351v-6.701h-3.35v-3.35zm30.157 0v3.351h3.351v-3.35zm0 3.351h-3.35v6.702h6.701v-3.351h-3.35z"/></svg>