<svg xmlns="http://www.w3.org/2000/svg" width="1500" height="500" viewBox="0 0 396.875 132.29167"><path d="M301.41 37.073l35.072 46.704v-8.073l-29.001-38.63zm12.132 0l22.94 30.54V59.54l-16.878-22.467zm12.131 0l10.81 14.402v-8.09l-4.748-6.312zm-37.623.009v14.517l13.311 17.727H288.05v14.526h24.22l8.523 11.341h15.69v-3.342L295.35 37.08zm-24.221.008v41.166H253.31l-7.275-9.686h-11.266v2.436l18.176 24.204h30.257V37.09zm-203.436.008v58.12h4.847v-58.12zm9.694 0v58.12h4.84v-58.12zm9.687 0v58.12h4.84v-58.12zm9.687 0v58.12h19.373V69.384l19.373 25.834h19.374v-6.427l-38.747-51.693zm62.967 0v6.51l14.526 19.35V43.575l-4.864-6.478zm33.899 0l-.017.009h.025zm.008.009l43.569 58.111V37.107l-10.909.008 6.062 8.074v35.545l-19.373-25.85V37.107zm-58.145 0v17.768l19.374 25.85V45.18l-6.062-8.073zm24.237 14.567V95.21h14.535V71.03zm33.9 17.702V95.21h19.381zm48.441 9.703v8.074l6.053 8.057h6.062z" style="line-height:normal;text-indent:0;text-align:start;text-decoration-line:none;text-decoration-style:solid;text-decoration-color:#000;text-transform:none;isolation:auto;mix-blend-mode:normal;marker:none" fill="none" stroke="#fff" stroke-width=".265" stroke-miterlimit="100"/><path d="M60.393 37.098h4.847l-4.847 58.12" style="isolation:auto;mix-blend-mode:normal;marker:none" color="#000" overflow="visible" opacity=".853" fill="#fff"/><path d="M65.24 37.098l-4.847 58.12h4.847" style="isolation:auto;mix-blend-mode:normal;marker:none" color="#000" overflow="visible" opacity=".906" fill="#fff"/><path d="M70.087 37.098l4.84 58.12v-58.12" style="isolation:auto;mix-blend-mode:normal;marker:none" color="#000" overflow="visible" opacity=".968" fill="#fff"/><path d="M74.927 95.218h-4.84v-58.12" style="isolation:auto;mix-blend-mode:normal;marker:none" color="#000" overflow="visible" opacity=".938" fill="#fff"/><path style="isolation:auto;mix-blend-mode:normal;marker:none" d="M141.502 37.107l6.062 43.619V45.18" color="#000" overflow="visible" opacity=".655" fill="#fff"/><path style="isolation:auto;mix-blend-mode:normal;marker:none" d="M128.19 54.875l13.312-17.768h-13.311" color="#000" overflow="visible" opacity=".723" fill="#fff"/><path style="isolation:auto;mix-blend-mode:normal;marker:none" d="M141.502 37.107l6.062 43.619-19.373-25.85" color="#000" overflow="visible" opacity=".805" fill="#fff"/><path d="M84.613 95.218l-4.839-58.12v58.12" style="isolation:auto;mix-blend-mode:normal;marker:none" color="#000" overflow="visible" opacity=".686" fill="#fff"/><path d="M84.613 37.098v58.12l-4.839-58.12" style="isolation:auto;mix-blend-mode:normal;marker:none" color="#000" overflow="visible" opacity=".937" fill="#fff"/><path style="isolation:auto;mix-blend-mode:normal;marker:none" d="M162.09 37.098l-9.662 6.51 14.526-.032" color="#000" overflow="visible" opacity=".882" fill="#fff"/><path style="isolation:auto;mix-blend-mode:normal;marker:none" d="M152.428 37.098v6.51l9.662-6.51" color="#000" overflow="visible" opacity=".849" fill="#fff"/><path style="isolation:auto;mix-blend-mode:normal;marker:none" d="M166.954 43.576v19.381L152.428 43.61" color="#000" overflow="visible" opacity=".642" fill="#fff"/><path d="M166.962 71.03l-14.534 24.18V51.674" style="isolation:auto;mix-blend-mode:normal;marker:none" color="#000" overflow="visible" opacity=".605" fill="#fff"/><path d="M166.962 95.21h-14.534l14.534-24.18" style="isolation:auto;mix-blend-mode:normal;marker:none" color="#000" overflow="visible" opacity=".51" fill="#fff"/><path style="isolation:auto;mix-blend-mode:normal;marker:none" d="M108.834 69.384V37.098l38.747 51.693z" color="#000" overflow="visible" opacity=".653" fill="#fff"/><path style="isolation:auto;mix-blend-mode:normal;marker:none" d="M147.58 88.791v6.427l-38.746-25.834" color="#000" overflow="visible" opacity=".607" fill="#fff"/><path style="isolation:auto;mix-blend-mode:normal;marker:none" d="M128.207 95.218h19.374l-38.747-25.834" color="#000" overflow="visible" opacity=".764" fill="#fff"/><path style="isolation:auto;mix-blend-mode:normal;marker:none" d="M89.46 37.098h19.374l-19.373 58.12" color="#000" overflow="visible" opacity=".6" fill="#fff"/><path style="isolation:auto;mix-blend-mode:normal;marker:none" d="M108.834 95.218v-58.12l-19.373 58.12" color="#000" overflow="visible" opacity=".754" fill="#fff"/><path d="M186.327 95.21h19.382l-19.382-25.834" style="isolation:auto;mix-blend-mode:normal;marker:none" color="#000" overflow="visible" opacity=".585" fill="#fff"/><path d="M186.335 37.107h19.349v17.777" style="isolation:auto;mix-blend-mode:normal;marker:none" color="#000" overflow="visible" opacity=".535" fill="#fff"/><path d="M186.335 37.107l19.349 17.777 24.22 40.334" style="isolation:auto;mix-blend-mode:normal;marker:none" color="#000" overflow="visible" opacity=".792" fill="#fff"/><path d="M225.057 80.734l-19.373-25.85 24.22 40.334" style="isolation:auto;mix-blend-mode:normal;marker:none" color="#000" overflow="visible" opacity=".768" fill="#fff"/><path d="M225.057 80.734l4.847 14.484V37.107" style="isolation:auto;mix-blend-mode:normal;marker:none" color="#000" overflow="visible" opacity=".643" fill="#fff"/><path d="M225.057 45.189v35.545l4.847-43.627" style="isolation:auto;mix-blend-mode:normal;marker:none" color="#000" overflow="visible" opacity=".763" fill="#fff"/><path d="M218.996 37.115l10.908-.008-4.847 8.081" style="isolation:auto;mix-blend-mode:normal;marker:none" color="#000" overflow="visible" opacity=".844" fill="#fff"/><path style="isolation:auto;mix-blend-mode:normal;marker:none" d="M234.768 79.08l6.054 16.13h6.061" color="#000" overflow="visible" opacity=".828" fill="#fff"/><path style="isolation:auto;mix-blend-mode:normal;marker:none" d="M234.768 87.153l6.054 8.057-6.054-16.13" color="#000" overflow="visible" opacity=".928" fill="#fff"/><path style="isolation:auto;mix-blend-mode:normal;marker:none" d="M234.769 68.57v2.436l11.266-2.436" color="#000" overflow="visible" opacity=".992" fill="#fff"/><path style="isolation:auto;mix-blend-mode:normal;marker:none" d="M253.31 78.256l-7.275-9.686 6.91 26.64z" color="#000" overflow="visible" opacity=".853" fill="#fff"/><path style="isolation:auto;mix-blend-mode:normal;marker:none" d="M234.769 71.006l11.266-2.436 6.91 26.64" color="#000" overflow="visible" opacity=".71" fill="#fff"/><path style="isolation:auto;mix-blend-mode:normal;marker:none" d="M253.31 78.256h10.519L252.945 95.21" color="#000" overflow="visible" opacity=".966" fill="#fff"/><path style="isolation:auto;mix-blend-mode:normal;marker:none" d="M283.202 95.21l-19.373-16.954-10.884 16.954" color="#000" overflow="visible" opacity=".772" fill="#fff"/><path style="isolation:auto;mix-blend-mode:normal;marker:none" d="M283.202 37.09l-19.373 41.166 19.373 16.954" color="#000" overflow="visible" opacity=".628" fill="#fff"/><path style="isolation:auto;mix-blend-mode:normal;marker:none" d="M263.829 37.09v41.166l19.373-41.166" color="#000" overflow="visible" opacity=".847" fill="#fff"/><path style="isolation:auto;mix-blend-mode:normal;marker:none" d="M295.35 37.082l-7.3 14.517V37.082" color="#000" overflow="visible" opacity=".921" fill="#fff"/><path style="isolation:auto;mix-blend-mode:normal;marker:none" d="M288.05 69.326l24.22 14.526h-24.22" color="#000" overflow="visible" opacity=".97" fill="#fff"/><path style="isolation:auto;mix-blend-mode:normal;marker:none" d="M301.361 69.326H288.05l24.22 14.526" color="#000" overflow="visible" opacity=".886" fill="#fff"/><path style="isolation:auto;mix-blend-mode:normal;marker:none" d="M320.793 95.193l15.69-3.342v3.342" color="#000" overflow="visible" opacity=".923" fill="#fff"/><path style="isolation:auto;mix-blend-mode:normal;marker:none" d="M336.482 91.85l-15.69 3.343-25.442-58.111" color="#000" overflow="visible" opacity=".762" fill="#fff"/><path style="isolation:auto;mix-blend-mode:normal;marker:none" d="M288.05 51.6l7.3-14.518 25.443 58.111" color="#000" overflow="visible" opacity=".682" fill="#fff"/><path style="isolation:auto;mix-blend-mode:normal;marker:none" d="M301.41 37.073l35.072 38.63-29.001-38.63" color="#000" overflow="visible" opacity=".62" fill="#fff"/><path style="isolation:auto;mix-blend-mode:normal;marker:none" d="M336.482 83.777v-8.073l-35.071-38.63" color="#000" overflow="visible" opacity=".506" fill="#fff"/><path style="isolation:auto;mix-blend-mode:normal;marker:none" d="M313.542 37.073l22.94 30.54-16.878-30.54" color="#000" overflow="visible" opacity=".588" fill="#fff"/><path style="isolation:auto;mix-blend-mode:normal;marker:none" d="M336.482 59.54v8.073l-16.878-30.54" color="#000" overflow="visible" opacity=".919" fill="#fff"/><path style="isolation:auto;mix-blend-mode:normal;marker:none" d="M325.673 37.073l10.81 6.311-4.748-6.31" color="#000" overflow="visible" opacity=".99" fill="#fff"/><path style="isolation:auto;mix-blend-mode:normal;marker:none" d="M336.482 51.475v-8.09l-10.809-6.312" color="#000" overflow="visible" opacity=".801" fill="#fff"/></svg>